<svg width="42" height="33" viewBox="0 0 42 33" fill="none" xmlns="http://www.w3.org/2000/svg">
<g clipPath="url(#clip0_15635_29471)">
<mask id="mask0_15635_29471" style="mask-type:luminance" maskUnits="userSpaceOnUse" x="0" y="0" width="42" height="33">
<path d="M41.1943 0.615234H0V32.9369H41.1943V0.615234Z" fill="white"/>
</mask>
<g mask="url(#mask0_15635_29471)">
<path d="M7.46633 32.8661V30.7211C7.46633 29.9005 6.97158 29.3632 6.12231 29.3632C5.69764 29.3632 5.23593 29.5048 4.91848 29.9713C4.67111 29.5798 4.31654 29.3632 3.78471 29.3632C3.43015 29.3632 3.0756 29.4715 2.79525 29.8631V29.434H2.05316V32.8661H2.79525V30.971C2.79525 30.3629 3.1127 30.0755 3.60743 30.0755C4.10216 30.0755 4.34954 30.3962 4.34954 30.971V32.8661H5.09162V30.971C5.09162 30.3629 5.44618 30.0755 5.90377 30.0755C6.39852 30.0755 6.6459 30.3962 6.6459 30.971V32.8661H7.46633ZM18.474 29.434H17.2702V28.3969H16.5281V29.434H15.8561V30.1129H16.5281V31.6874C16.5281 32.4746 16.8455 32.9369 17.6948 32.9369C18.0122 32.9369 18.3668 32.8286 18.6142 32.687L18.3998 32.0414C18.1854 32.183 17.938 32.2205 17.7607 32.2205C17.4062 32.2205 17.266 32.0039 17.266 31.6499V30.1129H18.4699V29.434H18.474ZM24.7735 29.3591C24.3489 29.3591 24.0644 29.5756 23.8871 29.8589V29.4299H23.1451V32.862H23.8871V30.9293C23.8871 30.3587 24.1345 30.0338 24.5963 30.0338C24.7364 30.0338 24.9137 30.0713 25.058 30.1046L25.2724 29.3882C25.124 29.3591 24.9137 29.3591 24.7735 29.3591ZM15.2541 29.7173C14.8996 29.4674 14.4049 29.3591 13.873 29.3591C13.0237 29.3591 12.459 29.7881 12.459 30.467C12.459 31.0376 12.8836 31.3625 13.6257 31.4666L13.9802 31.5041C14.3678 31.5749 14.5821 31.6832 14.5821 31.8623C14.5821 32.1122 14.2977 32.2913 13.8029 32.2913C13.3082 32.2913 12.9165 32.1122 12.6692 31.9331L12.3146 32.5037C12.7022 32.7912 13.234 32.9328 13.7659 32.9328C14.7553 32.9328 15.3242 32.4663 15.3242 31.8248C15.3242 31.2167 14.8625 30.896 14.1575 30.7877L13.8029 30.7502C13.4855 30.7127 13.2382 30.6419 13.2382 30.4295C13.2382 30.1796 13.4855 30.038 13.8772 30.038C14.3018 30.038 14.7264 30.2171 14.9408 30.3254L15.2541 29.7173ZM34.9979 29.3591C34.5733 29.3591 34.2888 29.5756 34.1115 29.8589V29.4299H33.3694V32.862H34.1115V30.9293C34.1115 30.3587 34.3589 30.0338 34.8206 30.0338C34.9608 30.0338 35.1381 30.0713 35.2824 30.1046L35.4967 29.3965C35.3525 29.359 35.1422 29.3591 34.9979 29.3591ZM25.5156 31.1501C25.5156 32.1872 26.2247 32.9369 27.3214 32.9369C27.8161 32.9369 28.1707 32.8286 28.5252 32.5454L28.1707 31.9373C27.8862 32.1539 27.6059 32.258 27.2843 32.258C26.6824 32.258 26.2577 31.829 26.2577 31.1501C26.2577 30.5045 26.6824 30.0755 27.2843 30.0421C27.6017 30.0421 27.8862 30.1504 28.1707 30.3629L28.5252 29.7548C28.1707 29.4673 27.8161 29.3632 27.3214 29.3632C26.2247 29.359 25.5156 30.1129 25.5156 31.1501ZM32.38 31.1501V29.434H31.6379V29.8631C31.3905 29.5423 31.036 29.3632 30.5742 29.3632C29.6177 29.3632 28.8756 30.1129 28.8756 31.1501C28.8756 32.1872 29.6177 32.9369 30.5742 32.9369C31.0689 32.9369 31.4235 32.7578 31.6379 32.4371V32.8661H32.38V31.1501ZM29.6548 31.1501C29.6548 30.542 30.0424 30.0421 30.6814 30.0421C31.2833 30.0421 31.708 30.5087 31.708 31.1501C31.708 31.7582 31.2833 32.258 30.6814 32.258C30.0465 32.2205 29.6548 31.754 29.6548 31.1501ZM20.7745 29.3591C19.785 29.3591 19.0759 30.0755 19.0759 31.1459C19.0759 32.2205 19.785 32.9328 20.8116 32.9328C21.3063 32.9328 21.801 32.7912 22.1927 32.4663L21.8382 31.929C21.5537 32.1456 21.1991 32.2872 20.8487 32.2872C20.3869 32.2872 19.9293 32.0706 19.8221 31.4666H22.3329C22.3329 31.3583 22.3329 31.2875 22.3329 31.1792C22.3659 30.0755 21.7268 29.3591 20.7745 29.3591ZM20.7745 30.0046C21.2362 30.0046 21.5537 30.2921 21.6238 30.8252H19.8551C19.9252 30.3629 20.2426 30.0046 20.7745 30.0046ZM39.2113 31.1501V28.0762H38.4693V29.8631C38.2219 29.5423 37.8673 29.3632 37.4056 29.3632C36.4491 29.3632 35.707 30.1129 35.707 31.1501C35.707 32.1872 36.4491 32.9369 37.4056 32.9369C37.9003 32.9369 38.2548 32.7578 38.4693 32.4371V32.8661H39.2113V31.1501ZM36.4862 31.1501C36.4862 30.542 36.8737 30.0421 37.5128 30.0421C38.1147 30.0421 38.5393 30.5087 38.5393 31.1501C38.5393 31.7582 38.1147 32.258 37.5128 32.258C36.8737 32.2205 36.4862 31.754 36.4862 31.1501ZM11.6426 31.1501V29.434H10.9006V29.8631C10.6532 29.5423 10.2986 29.3632 9.83687 29.3632C8.88042 29.3632 8.1383 30.1129 8.1383 31.1501C8.1383 32.1872 8.88042 32.9369 9.83687 32.9369C10.3316 32.9369 10.6861 32.7578 10.9006 32.4371V32.8661H11.6426V31.1501ZM8.88454 31.1501C8.88454 30.542 9.27205 30.0421 9.91111 30.0421C10.513 30.0421 10.9376 30.5087 10.9376 31.1501C10.9376 31.7582 10.513 32.258 9.91111 32.258C9.27205 32.2205 8.88454 31.754 8.88454 31.1501Z" fill="black"/>
<path d="M26.1544 3.36816H15.0065V23.6026H26.1544V3.36816Z" fill="#FF5A00"/>
<path d="M15.7488 13.4856C15.7488 9.37458 17.6618 5.72588 20.5972 3.36841C18.4368 1.65236 15.7117 0.615234 12.7392 0.615234C5.69763 0.615234 0 6.37148 0 13.4856C0 20.5997 5.69763 26.356 12.7392 26.356C15.7117 26.356 18.4368 25.3188 20.5972 23.6028C17.6576 21.2786 15.7488 17.5966 15.7488 13.4856Z" fill="#EB001B"/>
<path d="M41.1944 13.4856C41.1944 20.5997 35.4968 26.356 28.4551 26.356C25.4827 26.356 22.7576 25.3188 20.5972 23.6028C23.5697 21.2411 25.4455 17.5966 25.4455 13.4856C25.4455 9.37458 23.5326 5.72588 20.5972 3.36841C22.7534 1.65236 25.4785 0.615234 28.451 0.615234C35.4968 0.615234 41.1944 6.409 41.1944 13.4856Z" fill="#F79E1B"/>
</g>
</g>
<defs>
<clipPath id="clip0_15635_29471">
<rect width="41.3754" height="32.1809" fill="white" transform="translate(0 0.615234)"/>
</clipPath>
</defs>
</svg>
