<?xml version="1.0" encoding="UTF-8" standalone="no"?>
<svg xmlns="http://www.w3.org/2000/svg" width="600" height="100" viewBox="0 0 600 100">
  <!-- Visa -->
  <g transform="translate(0, 0)">
    <rect x="5" y="5" width="90" height="60" rx="5" fill="#f8f9fa"/>
    <path d="M30,40 L40,20 L45,20 L55,40 L50,40 L48,35 L37,35 L35,40 Z M38,30 L47,30 L43,22 Z" fill="#1434CB"/>
    <path d="M60,40 L60,20 L65,20 L75,33 L75,20 L80,20 L80,40 L75,40 L65,27 L65,40 Z" fill="#1434CB"/>
  </g>
  
  <!-- Mastercard -->
  <g transform="translate(100, 0)">
    <rect x="5" y="5" width="90" height="60" rx="5" fill="#f8f9fa"/>
    <circle cx="40" cy="35" r="15" fill="#EB001B"/>
    <circle cx="60" cy="35" r="15" fill="#F79E1B"/>
    <path d="M50,25 A15,15 0 0,0 50,45 A15,15 0 0,0 50,25" fill="#FF5F00"/>
  </g>
  
  <!-- American Express -->
  <g transform="translate(200, 0)">
    <rect x="5" y="5" width="90" height="60" rx="5" fill="#f8f9fa"/>
    <rect x="20" y="20" width="60" height="30" fill="#006FCF"/>
    <path d="M30,35 L40,20 L50,20 L60,35 L50,50 L40,50 Z" fill="#006FCF" stroke="white" stroke-width="2"/>
  </g>
  
  <!-- Discover -->
  <g transform="translate(300, 0)">
    <rect x="5" y="5" width="90" height="60" rx="5" fill="#f8f9fa"/>
    <path d="M20,35 A15,15 0 0,1 35,20 L75,20 A15,15 0 0,1 90,35 A15,15 0 0,1 75,50 L35,50 A15,15 0 0,1 20,35" fill="#FF6600"/>
    <path d="M35,35 A5,5 0 0,0 40,30 A5,5 0 0,0 35,25 A10,10 0 0,0 25,35 A10,10 0 0,0 35,45 A5,5 0 0,0 40,40 A5,5 0 0,0 35,35" fill="white"/>
  </g>
  
  <!-- PayPal -->
  <g transform="translate(400, 0)">
    <rect x="5" y="5" width="90" height="60" rx="5" fill="#f8f9fa"/>
    <path d="M30,20 L70,20 A10,10 0 0,1 80,30 A10,10 0 0,1 70,40 L65,40 L60,50 L50,50 L55,40 L30,40 Z" fill="#003087"/>
    <path d="M40,25 L75,25 A5,5 0 0,1 80,30 A5,5 0 0,1 75,35 L70,35 L65,45 L55,45 L60,35 L40,35 Z" fill="#009cde"/>
  </g>
  
  <!-- Apple Pay -->
  <g transform="translate(500, 0)">
    <rect x="5" y="5" width="90" height="60" rx="5" fill="#f8f9fa"/>
    <rect x="25" y="25" width="50" height="30" rx="5" fill="#000"/>
    <path d="M45,35 A5,5 0 0,1 50,30 A5,5 0 0,1 55,35 A5,5 0 0,1 50,40 A5,5 0 0,1 45,35" fill="white"/>
    <path d="M60,35 L65,30 L70,35 L65,40 Z" fill="white"/>
  </g>
</svg>