<svg width="88" height="30" viewBox="0 0 88 30" fill="none" xmlns="http://www.w3.org/2000/svg">
<g clipPath="url(#clip0_15635_29480)">
<path d="M33.2414 7.83496H28.4249C28.0953 7.83496 27.815 8.07274 27.7636 8.39585L25.8156 20.6608C25.7769 20.9028 25.9656 21.121 26.2128 21.121H28.5123C28.8419 21.121 29.1222 20.8832 29.1735 20.5594L29.6989 17.2513C29.7497 16.9276 30.0306 16.6897 30.3595 16.6897H31.8843C35.057 16.6897 36.8881 15.1651 37.3663 12.1438C37.5818 10.822 37.3754 9.78341 36.7522 9.0561C36.0676 8.25737 34.8534 7.83496 33.2414 7.83496ZM33.797 12.3145C33.5337 14.0307 32.2132 14.0307 30.9363 14.0307H30.2095L30.7194 10.8255C30.7497 10.6318 30.9187 10.4891 31.1159 10.4891H31.449C32.3188 10.4891 33.1393 10.4891 33.5632 10.9815C33.8161 11.2752 33.8935 11.7116 33.797 12.3145Z" fill="#253B80"/>
<path d="M47.639 12.2594H45.3326C45.1361 12.2594 44.9663 12.402 44.9361 12.5958L44.8339 13.2364L44.6726 13.0042C44.1733 12.2845 43.0599 12.0439 41.9486 12.0439C39.3998 12.0439 37.2229 13.9609 36.799 16.65C36.5786 17.9914 36.8919 19.2741 37.6581 20.1686C38.361 20.991 39.3667 21.3338 40.5632 21.3338C42.6169 21.3338 43.7557 20.0224 43.7557 20.0224L43.6529 20.6589C43.6142 20.9022 43.8029 21.1205 44.0487 21.1205H46.1262C46.4566 21.1205 46.7354 20.8827 46.7876 20.5588L48.0341 12.7196C48.0736 12.4783 47.8855 12.2594 47.639 12.2594ZM44.424 16.7172C44.2015 18.0257 43.1556 18.9041 41.8218 18.9041C41.152 18.9041 40.6168 18.6908 40.2731 18.2866C39.9323 17.8852 39.8027 17.3138 39.9111 16.6773C40.1189 15.3799 41.1823 14.4729 42.4958 14.4729C43.1507 14.4729 43.6831 14.689 44.0339 15.0967C44.3853 15.5086 44.5248 16.0836 44.424 16.7172Z" fill="#253B80"/>
<path d="M59.9225 12.2588H57.6047C57.3836 12.2588 57.1758 12.3679 57.0505 12.5504L53.8538 17.2264L52.4988 12.733C52.4136 12.4518 52.1523 12.2588 51.8565 12.2588H49.5789C49.3021 12.2588 49.1099 12.5274 49.1979 12.7862L51.7508 20.2261L49.3507 23.5908C49.162 23.8559 49.3521 24.2202 49.6782 24.2202H51.9931C52.2128 24.2202 52.4185 24.1139 52.5432 23.9349L60.2521 12.8847C60.4366 12.6204 60.2471 12.2588 59.9225 12.2588Z" fill="#253B80"/>
<path d="M67.5967 7.83496H62.7791C62.4507 7.83496 62.17 8.07274 62.1186 8.39585L60.1707 20.6608C60.132 20.9028 60.3207 21.121 60.5665 21.121H63.0384C63.2678 21.121 63.4647 20.9546 63.5008 20.728L64.0531 17.2513C64.1038 16.9276 64.3852 16.6897 64.7142 16.6897H66.2377C69.4113 16.6897 71.2418 15.1651 71.7207 12.1438C71.9366 10.822 71.7293 9.78341 71.106 9.0561C70.4223 8.25737 69.2089 7.83496 67.5967 7.83496ZM68.152 12.3145C67.8896 14.0307 66.5692 14.0307 65.2916 14.0307H64.5656L65.0757 10.8255C65.1062 10.6318 65.2738 10.4891 65.472 10.4891H65.8047C66.6738 10.4891 67.4952 10.4891 67.919 10.9815C68.1716 11.2752 68.2486 11.7116 68.152 12.3145Z" fill="#179BD7"/>
<path d="M81.993 12.2594H79.6879C79.4903 12.2594 79.3215 12.402 79.2922 12.5958L79.19 13.2364L79.028 13.0042C78.5289 12.2845 77.4158 12.0439 76.3045 12.0439C73.756 12.0439 71.5799 13.9609 71.1561 16.65C70.9359 17.9914 71.2478 19.2741 72.0141 20.1686C72.7187 20.991 73.723 21.3338 74.9192 21.3338C76.973 21.3338 78.1118 20.0224 78.1118 20.0224L78.009 20.6589C77.9705 20.9022 78.1589 21.1205 78.406 21.1205H80.483C80.812 21.1205 81.0921 20.8827 81.1435 20.5588L82.3911 12.7196C82.4291 12.4783 82.2401 12.2594 81.993 12.2594ZM78.7778 16.7172C78.557 18.0257 77.51 18.9041 76.1761 18.9041C75.5076 18.9041 74.9706 18.6908 74.6269 18.2866C74.2862 17.8852 74.1578 17.3138 74.2648 16.6773C74.474 15.3799 75.5363 14.4729 76.8501 14.4729C77.5045 14.4729 78.0372 14.689 78.3876 15.0967C78.7405 15.5086 78.88 16.0836 78.7778 16.7172Z" fill="#179BD7"/>
<path d="M84.7122 8.17107L82.7355 20.6605C82.6964 20.9025 82.8853 21.1207 83.1312 21.1207H85.1183C85.4485 21.1207 85.7293 20.8829 85.78 20.5591L87.7292 8.29484C87.7677 8.05287 87.5794 7.83398 87.3335 7.83398H85.1079C84.9116 7.83465 84.7422 7.97732 84.7122 8.17107Z" fill="#179BD7"/>
<path d="M5.81418 23.5045L6.18251 21.1812L5.36205 21.1623H1.44421L4.16691 4.01849C4.17535 3.96673 4.20282 3.91848 4.24297 3.8842C4.28311 3.84994 4.33452 3.83105 4.38804 3.83105H10.994C13.1871 3.83105 14.7006 4.28425 15.4908 5.17875C15.8612 5.59838 16.0972 6.03688 16.2112 6.51944C16.331 7.02579 16.3331 7.63077 16.2162 8.36858L16.2077 8.42245V8.89522L16.5782 9.10366C16.8902 9.26801 17.1381 9.45611 17.3282 9.67154C17.6451 10.0303 17.8501 10.4863 17.9367 11.0269C18.0262 11.5829 17.9966 12.2445 17.8501 12.9936C17.6811 13.8552 17.4078 14.6056 17.0388 15.2197C16.6993 15.7854 16.2669 16.2547 15.7535 16.6184C15.2633 16.964 14.6809 17.2262 14.0224 17.394C13.3844 17.5591 12.6569 17.6423 11.8589 17.6423H11.3448C10.9772 17.6423 10.6201 17.7738 10.3398 18.0095C10.0588 18.2501 9.87286 18.5788 9.8158 18.9383L9.77708 19.1474L9.12634 23.2422L9.09674 23.3926C9.08904 23.4401 9.07564 23.4639 9.05595 23.48C9.03833 23.4947 9.01295 23.5045 8.9883 23.5045H5.81418Z" fill="#253B80"/>
<path d="M16.9288 8.47656C16.9091 8.60174 16.8865 8.72977 16.8612 8.8612C15.99 13.3029 13.0096 14.8374 9.20299 14.8374H7.26484C6.79935 14.8374 6.40707 15.1731 6.33453 15.6291L5.34222 21.8787L5.06122 23.6502C5.01403 23.9495 5.24644 24.2195 5.55068 24.2195H8.9882C9.39528 24.2195 9.74108 23.9258 9.80518 23.5271L9.83894 23.3537L10.4862 19.2749L10.5277 19.0511C10.5911 18.6511 10.9376 18.3573 11.3447 18.3573H11.8588C15.1893 18.3573 17.7965 17.0145 18.5584 13.1288C18.8768 11.5055 18.712 10.1502 17.8697 9.19694C17.6147 8.90948 17.2986 8.67098 16.9288 8.47656Z" fill="#179BD7"/>
<path d="M16.0172 8.11614C15.8841 8.0777 15.7468 8.04271 15.6059 8.01125C15.4643 7.98046 15.3193 7.95319 15.17 7.92944C14.6474 7.84551 14.0748 7.80566 13.4614 7.80566H8.28366C8.15614 7.80566 8.03504 7.83433 7.92655 7.88608C7.68784 8.00008 7.51035 8.22455 7.46742 8.49944L6.36592 15.4274L6.33423 15.6296C6.40677 15.1736 6.79904 14.8379 7.26455 14.8379H9.20271C13.0092 14.8379 15.9897 13.3027 16.8609 8.86173C16.887 8.73024 16.9088 8.60221 16.9285 8.47703C16.7081 8.36097 16.4693 8.26166 16.2122 8.177C16.1489 8.15605 16.0834 8.13576 16.0172 8.11614Z" fill="#222D65"/>
<path d="M7.46761 8.49971C7.51054 8.22489 7.68803 8.00035 7.92674 7.88708C8.03591 7.83533 8.15633 7.80666 8.28385 7.80666H13.4616C14.075 7.80666 14.6475 7.84651 15.1702 7.93044C15.3194 7.95419 15.4645 7.98146 15.6061 8.01225C15.747 8.04371 15.8843 8.0787 16.0173 8.11714C16.0836 8.13676 16.1491 8.15705 16.2132 8.17733C16.4702 8.26194 16.7089 8.36197 16.9294 8.47736C17.1886 6.83593 16.9273 5.71831 16.0335 4.70631C15.0483 3.59221 13.27 3.11523 10.9945 3.11523H4.38853C3.92372 3.11523 3.52722 3.45094 3.45538 3.90763L0.703812 21.2276C0.649584 21.5704 0.915796 21.8795 1.2637 21.8795H5.34211L6.36611 15.4277L7.46761 8.49971Z" fill="#253B80"/>
</g>
<defs>
<clipPath id="clip0_15635_29480">
<rect width="87.155" height="29.2548" fill="white" transform="translate(0.697021 0.078125)"/>
</clipPath>
</defs>
</svg>
