<svg width="63" height="21" viewBox="0 0 63 21" fill="none" xmlns="http://www.w3.org/2000/svg">
<g clipPath="url(#clip0_15635_29491)">
<mask id="mask0_15635_29491" style="mask-type:luminance" maskUnits="userSpaceOnUse" x="0" y="0" width="63" height="21">
<path d="M62.9999 0.579102H0.257751V20.8594H62.9999V0.579102Z" fill="white"/>
</mask>
<g mask="url(#mask0_15635_29491)">
<path d="M41.1242 0.603516C36.6693 0.603516 32.6881 2.90146 32.6881 7.14707C32.6881 12.016 39.7488 12.3522 39.7488 14.7982C39.7488 15.8281 38.5628 16.7501 36.5372 16.7501C33.6624 16.7501 31.5138 15.4619 31.5138 15.4619L30.5945 19.7462C30.5945 19.7462 33.0696 20.8344 36.3558 20.8344C41.2265 20.8344 45.0592 18.4235 45.0592 14.1054C45.0592 8.9605 37.969 8.6342 37.969 6.36392C37.969 5.55701 38.9426 4.67307 40.9624 4.67307C43.2413 4.67307 45.1009 5.60999 45.1009 5.60999L46.0007 1.4721C46.0007 1.4721 43.9773 0.603516 41.1242 0.603516ZM0.365894 0.915837L0.257996 1.54042C0.257996 1.54042 2.13222 1.88174 3.82023 2.5627C5.99366 3.34347 6.14853 3.79804 6.51454 5.20985L10.5033 20.5123H15.8504L24.0879 0.915837H18.7531L13.46 14.2395L11.3002 2.94571C11.1021 1.65317 10.0987 0.915837 8.87055 0.915837H0.365894ZM26.233 0.915837L22.0481 20.5122H27.1352L31.3055 0.915775L26.233 0.915837ZM54.6059 0.915837C53.3791 0.915837 52.729 1.56942 52.2522 2.71151L44.7991 20.5122H50.1339L51.1662 17.5454H57.6654L58.2928 20.5122H63.0001L58.8938 0.915837H54.6059ZM55.2993 6.21016L56.8807 13.5637H52.6444L55.2993 6.21016Z" fill="#1434CB"/>
</g>
</g>
<defs>
<clipPath id="clip0_15635_29491">
<rect width="62.8262" height="20.2532" fill="white" transform="translate(0.173767 0.579102)"/>
</clipPath>
</defs>
</svg>
